<svg xmlns="http://www.w3.org/2000/svg" xmlns:xlink="http://www.w3.org/1999/xlink" width="500" zoomAndPan="magnify" viewBox="0 0 375 374.999991" height="500" preserveAspectRatio="xMidYMid meet" version="1.0"><defs><clipPath id="ebc0bbe6c4"><path d="M 75 0 L 300 0 C 341.421875 0 375 33.578125 375 75 L 375 300 C 375 341.421875 341.421875 375 300 375 L 75 375 C 33.578125 375 0 341.421875 0 300 L 0 75 C 0 33.578125 33.578125 0 75 0 Z M 75 0 " clip-rule="nonzero"/></clipPath><linearGradient x1="-0" gradientTransform="matrix(1.464844, 0, 0, 1.464844, 0.0000045, -0)" y1="128" x2="255.999988" gradientUnits="userSpaceOnUse" y2="128" id="c53523436c"><stop stop-opacity="1" stop-color="rgb(0.799561%, 51.399231%, 79.598999%)" offset="0"/><stop stop-opacity="1" stop-color="rgb(0.793457%, 51.542664%, 79.75769%)" offset="0.015625"/><stop stop-opacity="1" stop-color="rgb(0.779724%, 51.829529%, 80.076599%)" offset="0.03125"/><stop stop-opacity="1" stop-color="rgb(0.767517%, 52.11792%, 80.395508%)" offset="0.046875"/><stop stop-opacity="1" stop-color="rgb(0.75531%, 52.404785%, 80.714417%)" offset="0.0625"/><stop stop-opacity="1" stop-color="rgb(0.743103%, 52.693176%, 81.033325%)" offset="0.078125"/><stop stop-opacity="1" stop-color="rgb(0.730896%, 52.980042%, 81.352234%)" offset="0.09375"/><stop stop-opacity="1" stop-color="rgb(0.717163%, 53.266907%, 81.671143%)" offset="0.109375"/><stop stop-opacity="1" stop-color="rgb(0.704956%, 53.555298%, 81.988525%)" offset="0.125"/><stop stop-opacity="1" stop-color="rgb(0.692749%, 53.842163%, 82.307434%)" offset="0.140625"/><stop stop-opacity="1" stop-color="rgb(0.680542%, 54.130554%, 82.626343%)" offset="0.15625"/><stop stop-opacity="1" stop-color="rgb(0.668335%, 54.417419%, 82.945251%)" offset="0.171875"/><stop stop-opacity="1" stop-color="rgb(0.654602%, 54.705811%, 83.26416%)" offset="0.1875"/><stop stop-opacity="1" stop-color="rgb(0.642395%, 54.992676%, 83.583069%)" offset="0.203125"/><stop stop-opacity="1" stop-color="rgb(0.630188%, 55.279541%, 83.901978%)" offset="0.21875"/><stop stop-opacity="1" stop-color="rgb(0.617981%, 55.567932%, 84.220886%)" offset="0.234375"/><stop stop-opacity="1" stop-color="rgb(0.605774%, 55.854797%, 84.539795%)" offset="0.25"/><stop stop-opacity="1" stop-color="rgb(0.593567%, 56.143188%, 84.857178%)" offset="0.265625"/><stop stop-opacity="1" stop-color="rgb(0.579834%, 56.430054%, 85.176086%)" offset="0.28125"/><stop stop-opacity="1" stop-color="rgb(0.567627%, 56.716919%, 85.494995%)" offset="0.296875"/><stop stop-opacity="1" stop-color="rgb(0.55542%, 57.00531%, 85.813904%)" offset="0.3125"/><stop stop-opacity="1" stop-color="rgb(0.543213%, 57.292175%, 86.132812%)" offset="0.328125"/><stop stop-opacity="1" stop-color="rgb(0.531006%, 57.580566%, 86.451721%)" offset="0.34375"/><stop stop-opacity="1" stop-color="rgb(0.517273%, 57.867432%, 86.77063%)" offset="0.359375"/><stop stop-opacity="1" stop-color="rgb(0.505066%, 58.155823%, 87.089539%)" offset="0.375"/><stop stop-opacity="1" stop-color="rgb(0.492859%, 58.442688%, 87.408447%)" offset="0.390625"/><stop stop-opacity="1" stop-color="rgb(0.480652%, 58.729553%, 87.727356%)" offset="0.40625"/><stop stop-opacity="1" stop-color="rgb(0.468445%, 59.017944%, 88.044739%)" offset="0.421875"/><stop stop-opacity="1" stop-color="rgb(0.454712%, 59.30481%, 88.363647%)" offset="0.4375"/><stop stop-opacity="1" stop-color="rgb(0.442505%, 59.593201%, 88.682556%)" offset="0.453125"/><stop stop-opacity="1" stop-color="rgb(0.430298%, 59.880066%, 89.001465%)" offset="0.46875"/><stop stop-opacity="1" stop-color="rgb(0.418091%, 60.166931%, 89.320374%)" offset="0.484375"/><stop stop-opacity="1" stop-color="rgb(0.405884%, 60.455322%, 89.639282%)" offset="0.5"/><stop stop-opacity="1" stop-color="rgb(0.392151%, 60.742188%, 89.958191%)" offset="0.515625"/><stop stop-opacity="1" stop-color="rgb(0.379944%, 61.030579%, 90.2771%)" offset="0.53125"/><stop stop-opacity="1" stop-color="rgb(0.367737%, 61.317444%, 90.596008%)" offset="0.546875"/><stop stop-opacity="1" stop-color="rgb(0.35553%, 61.605835%, 90.914917%)" offset="0.5625"/><stop stop-opacity="1" stop-color="rgb(0.343323%, 61.8927%, 91.2323%)" offset="0.578125"/><stop stop-opacity="1" stop-color="rgb(0.32959%, 62.179565%, 91.551208%)" offset="0.59375"/><stop stop-opacity="1" stop-color="rgb(0.317383%, 62.467957%, 91.870117%)" offset="0.609375"/><stop stop-opacity="1" stop-color="rgb(0.305176%, 62.754822%, 92.189026%)" offset="0.625"/><stop stop-opacity="1" stop-color="rgb(0.292969%, 63.043213%, 92.507935%)" offset="0.640625"/><stop stop-opacity="1" stop-color="rgb(0.280762%, 63.330078%, 92.826843%)" offset="0.65625"/><stop stop-opacity="1" stop-color="rgb(0.268555%, 63.616943%, 93.145752%)" offset="0.671875"/><stop stop-opacity="1" stop-color="rgb(0.254822%, 63.905334%, 93.464661%)" offset="0.6875"/><stop stop-opacity="1" stop-color="rgb(0.242615%, 64.1922%, 93.783569%)" offset="0.703125"/><stop stop-opacity="1" stop-color="rgb(0.230408%, 64.480591%, 94.100952%)" offset="0.71875"/><stop stop-opacity="1" stop-color="rgb(0.218201%, 64.767456%, 94.419861%)" offset="0.734375"/><stop stop-opacity="1" stop-color="rgb(0.205994%, 65.055847%, 94.73877%)" offset="0.75"/><stop stop-opacity="1" stop-color="rgb(0.192261%, 65.342712%, 95.057678%)" offset="0.765625"/><stop stop-opacity="1" stop-color="rgb(0.180054%, 65.629578%, 95.376587%)" offset="0.78125"/><stop stop-opacity="1" stop-color="rgb(0.167847%, 65.917969%, 95.695496%)" offset="0.796875"/><stop stop-opacity="1" stop-color="rgb(0.15564%, 66.204834%, 96.014404%)" offset="0.8125"/><stop stop-opacity="1" stop-color="rgb(0.143433%, 66.493225%, 96.333313%)" offset="0.828125"/><stop stop-opacity="1" stop-color="rgb(0.1297%, 66.78009%, 96.652222%)" offset="0.84375"/><stop stop-opacity="1" stop-color="rgb(0.117493%, 67.066956%, 96.97113%)" offset="0.859375"/><stop stop-opacity="1" stop-color="rgb(0.105286%, 67.355347%, 97.288513%)" offset="0.875"/><stop stop-opacity="1" stop-color="rgb(0.0930786%, 67.642212%, 97.607422%)" offset="0.890625"/><stop stop-opacity="1" stop-color="rgb(0.0808716%, 67.930603%, 97.926331%)" offset="0.90625"/><stop stop-opacity="1" stop-color="rgb(0.0671387%, 68.217468%, 98.245239%)" offset="0.921875"/><stop stop-opacity="1" stop-color="rgb(0.0549316%, 68.505859%, 98.564148%)" offset="0.9375"/><stop stop-opacity="1" stop-color="rgb(0.0427246%, 68.792725%, 98.883057%)" offset="0.953125"/><stop stop-opacity="1" stop-color="rgb(0.0305176%, 69.07959%, 99.201965%)" offset="0.96875"/><stop stop-opacity="1" stop-color="rgb(0.0183105%, 69.367981%, 99.520874%)" offset="0.984375"/><stop stop-opacity="1" stop-color="rgb(0.00610352%, 69.654846%, 99.839783%)" offset="1"/></linearGradient><clipPath id="3a815d669e"><path d="M 51.398438 36.726562 L 226 36.726562 L 226 264.726562 L 51.398438 264.726562 Z M 51.398438 36.726562 " clip-rule="nonzero"/></clipPath><clipPath id="59bd16b2a0"><path d="M 142.273438 167 L 326 167 L 326 314 L 142.273438 314 Z M 142.273438 167 " clip-rule="nonzero"/></clipPath><clipPath id="41b75589d3"><path d="M 292 317 L 322 317 L 322 347.515625 L 292 347.515625 Z M 292 317 " clip-rule="nonzero"/></clipPath><clipPath id="036e281332"><path d="M 195 317 L 225 317 L 225 347.515625 L 195 347.515625 Z M 195 317 " clip-rule="nonzero"/></clipPath></defs><g clip-path="url(#ebc0bbe6c4)"><rect x="-37.5" fill="url(#c53523436c)" width="450" y="-37.499999" height="449.999989"/></g><path fill="#ffffff" d="M 101.355469 175 L 83.480469 175 C 79.1875 175 75.679688 178.507812 75.679688 182.800781 L 75.679688 200.675781 C 75.679688 204.964844 79.1875 208.476562 83.480469 208.476562 L 101.355469 208.476562 C 105.644531 208.476562 109.15625 204.964844 109.15625 200.675781 L 109.15625 182.800781 C 109.15625 178.476562 105.644531 175 101.355469 175 Z M 103.957031 200.675781 C 103.957031 202.105469 102.785156 203.277344 101.355469 203.277344 L 83.480469 203.277344 C 82.046875 203.277344 80.878906 202.105469 80.878906 200.675781 L 80.878906 182.800781 C 80.878906 181.371094 82.046875 180.199219 83.480469 180.199219 L 101.355469 180.199219 C 102.785156 180.199219 103.957031 181.371094 103.957031 182.800781 Z M 103.957031 200.675781 " fill-opacity="1" fill-rule="nonzero"/><path fill="#ffffff" d="M 200.519531 104.046875 L 124.53125 104.046875 C 122.382812 104.046875 120.628906 105.800781 120.628906 107.945312 C 120.628906 110.089844 122.382812 111.847656 124.53125 111.847656 L 200.519531 111.847656 C 202.664062 111.847656 204.421875 110.089844 204.421875 107.945312 C 204.421875 105.800781 202.664062 104.046875 200.519531 104.046875 Z M 200.519531 104.046875 " fill-opacity="1" fill-rule="nonzero"/><path fill="#ffffff" d="M 204.421875 151.597656 C 204.421875 149.453125 202.664062 147.695312 200.519531 147.695312 L 124.53125 147.695312 C 122.382812 147.695312 120.628906 149.453125 120.628906 151.597656 C 120.628906 153.742188 122.382812 155.496094 124.53125 155.496094 L 200.519531 155.496094 C 202.664062 155.496094 204.421875 153.742188 204.421875 151.597656 Z M 204.421875 151.597656 " fill-opacity="1" fill-rule="nonzero"/><path fill="#ffffff" d="M 118.417969 115.160156 C 117.214844 114.347656 115.625 114.675781 114.8125 115.878906 L 105.386719 129.949219 C 104.214844 129.234375 102.851562 128.84375 101.355469 128.84375 L 83.480469 128.84375 C 81.984375 128.84375 80.554688 129.269531 79.351562 130.015625 L 79.089844 129.65625 C 78.277344 128.457031 76.652344 128.164062 75.484375 128.976562 C 74.28125 129.789062 73.988281 131.414062 74.800781 132.582031 L 76.003906 134.371094 C 75.777344 135.085938 75.644531 135.867188 75.644531 136.679688 L 75.644531 154.554688 C 75.644531 158.84375 79.15625 162.355469 83.445312 162.355469 L 101.324219 162.355469 C 105.613281 162.355469 109.125 158.84375 109.125 154.554688 L 109.125 136.679688 C 109.125 135.832031 108.992188 135.019531 108.734375 134.273438 L 119.101562 118.800781 C 119.914062 117.566406 119.589844 115.941406 118.417969 115.160156 Z M 83.480469 134.046875 L 101.355469 134.046875 C 101.746094 134.046875 102.136719 134.144531 102.460938 134.304688 L 94.203125 146.65625 C 93.71875 147.371094 93.101562 147.761719 92.449219 147.761719 C 91.800781 147.761719 91.183594 147.371094 90.695312 146.691406 L 82.308594 134.371094 C 82.632812 134.144531 83.023438 134.046875 83.480469 134.046875 Z M 103.957031 154.523438 C 103.957031 155.953125 102.785156 157.121094 101.355469 157.121094 L 83.480469 157.121094 C 82.046875 157.121094 80.878906 155.953125 80.878906 154.523438 L 80.878906 141.488281 L 86.371094 149.582031 C 87.835938 151.726562 90.011719 152.929688 92.417969 152.929688 C 92.417969 152.929688 92.449219 152.929688 92.449219 152.929688 C 94.855469 152.929688 97.066406 151.695312 98.496094 149.515625 L 103.921875 141.390625 L 103.921875 154.523438 Z M 103.957031 154.523438 " fill-opacity="1" fill-rule="nonzero"/><path fill="#ffffff" d="M 118.417969 69.984375 C 117.214844 69.171875 115.625 69.496094 114.8125 70.699219 L 105.808594 84.089844 C 104.539062 83.210938 103.011719 82.660156 101.324219 82.660156 L 83.445312 82.660156 C 81.722656 82.660156 80.132812 83.210938 78.863281 84.15625 C 78.019531 83.210938 76.554688 83.015625 75.484375 83.765625 C 74.28125 84.578125 73.988281 86.203125 74.800781 87.371094 L 75.839844 88.867188 C 75.742188 89.386719 75.679688 89.90625 75.679688 90.460938 L 75.679688 108.335938 C 75.679688 112.625 79.1875 116.136719 83.480469 116.136719 L 101.355469 116.136719 C 105.644531 116.136719 109.15625 112.625 109.15625 108.335938 L 109.15625 90.460938 C 109.15625 89.875 109.089844 89.289062 108.960938 88.738281 L 119.132812 73.558594 C 119.914062 72.390625 119.589844 70.761719 118.417969 69.984375 Z M 101.355469 87.890625 C 101.941406 87.890625 102.492188 88.085938 102.949219 88.445312 L 94.203125 101.476562 C 93.71875 102.195312 93.101562 102.582031 92.449219 102.582031 C 91.800781 102.582031 91.183594 102.195312 90.695312 101.511719 L 81.855469 88.511719 C 82.308594 88.152344 82.863281 87.925781 83.480469 87.925781 L 101.355469 87.925781 Z M 103.957031 108.367188 C 103.957031 109.800781 102.785156 110.96875 101.355469 110.96875 L 83.480469 110.96875 C 82.046875 110.96875 80.878906 109.800781 80.878906 108.367188 L 80.878906 96.3125 L 86.371094 104.402344 C 87.835938 106.550781 90.011719 107.75 92.417969 107.75 C 92.417969 107.75 92.449219 107.75 92.449219 107.75 C 94.855469 107.75 97.066406 106.515625 98.496094 104.339844 L 103.921875 96.214844 L 103.921875 108.367188 Z M 103.957031 108.367188 " fill-opacity="1" fill-rule="nonzero"/><path fill="#ffffff" d="M 251.453125 108.5625 L 245.667969 105.769531 C 239.296875 102.679688 231.558594 105.347656 228.472656 111.714844 L 222.070312 124.914062 L 182.546875 206.167969 C 181.441406 208.410156 180.824219 210.816406 180.695312 213.285156 L 179.230469 241.628906 C 179.167969 243.15625 180.011719 244.621094 181.375 245.300781 C 181.894531 245.5625 182.480469 245.691406 183.066406 245.691406 C 183.976562 245.691406 184.886719 245.367188 185.601562 244.75 L 206.988281 226.09375 C 208.875 224.46875 210.367188 222.484375 211.472656 220.242188 L 250.996094 138.921875 L 257.398438 125.757812 C 260.519531 119.355469 257.855469 111.652344 251.453125 108.5625 Z M 235.429688 115.066406 C 236.664062 112.496094 239.785156 111.425781 242.320312 112.691406 L 248.105469 115.488281 C 250.671875 116.722656 251.746094 119.84375 250.476562 122.378906 L 245.765625 132.097656 L 230.683594 124.78125 Z M 201.917969 220.308594 L 187.390625 232.984375 L 188.398438 213.710938 C 188.460938 212.246094 188.820312 210.847656 189.46875 209.550781 L 189.535156 209.417969 L 204.617188 216.730469 L 204.550781 216.863281 C 203.902344 218.195312 203.023438 219.332031 201.917969 220.308594 Z M 206.988281 211.824219 L 205.003906 210.847656 L 191.941406 204.480469 L 226.292969 133.820312 L 241.375 141.132812 Z M 206.988281 211.824219 " fill-opacity="1" fill-rule="nonzero"/><path fill="#ffffff" d="M 124.53125 191.445312 C 122.382812 191.445312 120.628906 193.199219 120.628906 195.34375 C 120.628906 197.492188 122.382812 199.246094 124.53125 199.246094 L 176.792969 199.246094 C 178.9375 199.246094 180.695312 197.492188 180.695312 195.34375 C 180.695312 193.199219 178.9375 191.445312 176.792969 191.445312 Z M 124.53125 191.445312 " fill-opacity="1" fill-rule="nonzero"/><g clip-path="url(#3a815d669e)"><path fill="#ffffff" d="M 221.257812 212.800781 C 219.144531 212.800781 217.421875 214.523438 217.421875 216.636719 L 217.421875 245.464844 C 217.421875 251.609375 212.449219 256.613281 206.273438 256.613281 L 70.21875 256.613281 C 64.074219 256.613281 59.070312 251.640625 59.070312 245.464844 L 59.070312 55.617188 C 59.070312 49.472656 64.042969 44.46875 70.21875 44.46875 L 206.273438 44.46875 C 212.417969 44.46875 217.421875 49.441406 217.421875 55.617188 L 217.421875 108.273438 C 217.421875 110.382812 219.144531 112.105469 221.257812 112.105469 C 223.371094 112.105469 225.09375 110.382812 225.09375 108.273438 L 225.09375 55.617188 C 225.09375 45.214844 216.675781 36.796875 206.273438 36.796875 L 70.21875 36.796875 C 59.816406 36.796875 51.398438 45.214844 51.398438 55.617188 L 51.398438 245.464844 C 51.398438 255.867188 59.816406 264.285156 70.21875 264.285156 L 206.273438 264.285156 C 216.675781 264.285156 225.09375 255.867188 225.09375 245.464844 L 225.09375 216.636719 C 225.09375 214.523438 223.371094 212.800781 221.257812 212.800781 Z M 221.257812 212.800781 " fill-opacity="1" fill-rule="nonzero"/></g><path fill="#cb4a02" d="M 254.167969 200.074219 C 277.660156 200.074219 301.152344 200.070312 324.644531 200.058594 C 326.675781 200.058594 328.617188 200.160156 330.414062 201.269531 C 332.652344 202.65625 334.070312 205.472656 333.617188 208.03125 C 332 217.191406 330.320312 226.339844 328.707031 235.503906 C 326.695312 246.882812 324.691406 258.265625 322.703125 269.652344 C 322.542969 270.566406 322.300781 271.46875 322.078125 272.371094 C 321.132812 276.199219 319.058594 278.089844 315.179688 278.414062 C 307.613281 279.035156 300.042969 279.53125 292.484375 280.160156 C 284.402344 280.832031 276.328125 281.605469 268.242188 282.320312 C 264.796875 282.625 261.351562 282.902344 257.902344 283.164062 C 249.660156 283.773438 241.4375 284.339844 233.210938 284.972656 C 222.996094 285.757812 212.78125 286.574219 202.570312 287.417969 C 200.054688 287.621094 197.542969 288.027344 195.027344 288.0625 C 191.441406 288.113281 188.917969 286.140625 188.191406 282.585938 C 187.015625 276.867188 186.050781 271.097656 185.007812 265.351562 C 182.652344 252.414062 180.300781 239.476562 177.953125 226.539062 C 176.886719 220.660156 175.8125 214.78125 174.773438 208.898438 C 173.917969 204.058594 177.085938 200.257812 182.097656 200.109375 C 184.230469 200.046875 186.367188 200.09375 188.503906 200.09375 Z M 225.132812 233.613281 L 218.34375 233.613281 C 218.210938 233.613281 218.070312 233.613281 217.945312 233.613281 C 214.574219 233.597656 214.230469 233.1875 214.515625 237.003906 C 214.847656 241.507812 215.15625 246.011719 215.53125 250.507812 C 215.695312 252.464844 216.140625 252.804688 218.046875 252.679688 C 221.222656 252.476562 224.402344 252.257812 227.574219 252.023438 C 229.6875 251.867188 231.796875 251.621094 233.910156 251.492188 C 235.285156 251.410156 236.257812 251.199219 235.695312 249.410156 C 235.460938 248.679688 235.609375 247.828125 235.597656 247.027344 C 235.535156 243.179688 235.445312 239.308594 235.4375 235.449219 C 235.4375 234.0625 234.851562 233.578125 233.515625 233.605469 C 230.722656 233.652344 227.933594 233.613281 225.132812 233.613281 Z M 254.910156 208.839844 C 251.722656 208.839844 248.527344 208.875 245.339844 208.824219 C 244 208.804688 243.382812 209.261719 243.460938 210.667969 C 243.699219 215.167969 243.886719 219.675781 244.097656 224.179688 C 244.144531 225.160156 244.695312 225.554688 245.644531 225.554688 C 247.242188 225.539062 248.835938 225.554688 250.429688 225.554688 C 254.824219 225.554688 259.222656 225.539062 263.59375 225.554688 C 264.839844 225.554688 265.714844 225.152344 265.742188 223.800781 C 265.84375 219.28125 265.910156 214.761719 265.96875 210.242188 C 265.96875 209.28125 265.480469 208.816406 264.484375 208.824219 C 261.296875 208.855469 258.101562 208.839844 254.910156 208.839844 Z M 286.761719 208.839844 C 283.570312 208.839844 280.382812 208.867188 277.1875 208.839844 C 275.777344 208.824219 274.855469 209.269531 274.828125 210.832031 C 274.761719 215.226562 274.707031 219.605469 274.625 223.992188 C 274.605469 225.214844 275.238281 225.578125 276.355469 225.574219 C 282.472656 225.558594 288.585938 225.574219 294.707031 225.574219 C 295.605469 225.574219 296.257812 225.242188 296.332031 224.246094 C 296.667969 219.753906 296.976562 215.253906 297.328125 210.761719 C 297.429688 209.417969 296.933594 208.816406 295.539062 208.835938 C 292.613281 208.878906 289.6875 208.84375 286.761719 208.839844 Z M 223.667969 208.839844 C 220.476562 208.839844 217.285156 208.800781 214.089844 208.855469 C 212.167969 208.882812 212.046875 208.957031 212.167969 210.949219 C 212.421875 215.1875 212.8125 219.417969 213.128906 223.652344 C 213.242188 225.214844 214.167969 225.578125 215.566406 225.578125 C 221.285156 225.539062 227.007812 225.523438 232.730469 225.589844 C 234.261719 225.609375 234.898438 225.101562 234.859375 223.546875 C 234.75 219.289062 234.65625 215.03125 234.683594 210.777344 C 234.683594 209.082031 233.839844 208.808594 232.453125 208.832031 C 229.523438 208.867188 226.597656 208.835938 223.667969 208.839844 Z M 255.039062 233.617188 C 252.109375 233.617188 249.175781 233.644531 246.25 233.605469 C 245.007812 233.585938 244.195312 233.832031 244.273438 235.335938 C 244.515625 240.113281 244.703125 244.902344 244.917969 249.683594 C 244.960938 250.625 245.40625 251.132812 246.425781 251.078125 C 251.203125 250.800781 255.988281 250.566406 260.769531 250.277344 C 261.691406 250.21875 262.597656 249.9375 263.515625 249.851562 C 264.730469 249.742188 265.019531 249.027344 265.027344 247.949219 C 265.066406 243.828125 265.078125 239.683594 265.226562 235.554688 C 265.289062 233.84375 264.453125 233.566406 263.046875 233.597656 C 260.375 233.652344 257.707031 233.613281 255.039062 233.617188 Z M 285.015625 233.617188 C 281.949219 233.617188 278.886719 233.632812 275.820312 233.617188 C 274.742188 233.617188 274.046875 233.890625 274.035156 235.164062 C 273.996094 239.429688 273.910156 243.679688 273.84375 247.957031 C 273.824219 249.164062 274.390625 249.546875 275.589844 249.464844 C 279.710938 249.1875 283.816406 249.015625 287.929688 248.75 C 289.515625 248.648438 291.089844 248.355469 292.675781 248.238281 C 293.671875 248.164062 294.070312 247.613281 294.207031 246.742188 C 294.367188 245.695312 294.558594 244.652344 294.652344 243.597656 C 294.902344 240.953125 295.070312 238.300781 295.335938 235.660156 C 295.507812 233.921875 295.355469 233.664062 293.410156 233.628906 C 290.613281 233.570312 287.824219 233.609375 285.015625 233.609375 Z M 197.027344 233.617188 C 195.15625 233.617188 193.289062 233.589844 191.421875 233.617188 C 188.703125 233.667969 188.550781 233.707031 188.929688 236.289062 C 189.703125 241.546875 190.640625 246.777344 191.558594 252.011719 C 191.722656 252.960938 192.1875 253.800781 193.382812 253.757812 C 197.113281 253.628906 200.851562 253.597656 204.570312 253.308594 C 206.542969 253.160156 206.769531 252.761719 206.652344 250.710938 C 206.363281 246.058594 205.96875 241.414062 205.601562 236.769531 C 205.570312 236.375 205.324219 236.003906 205.300781 235.613281 C 205.203125 234.175781 204.601562 233.484375 203.03125 233.582031 C 201.035156 233.707031 199.027344 233.613281 197.027344 233.609375 Z M 236.421875 268.011719 L 236.207031 268.011719 C 236.207031 265.746094 236.230469 263.476562 236.207031 261.207031 C 236.1875 259.859375 235.484375 259.355469 234.121094 259.558594 C 232.542969 259.78125 230.945312 259.859375 229.355469 259.96875 C 225.785156 260.21875 222.191406 260.492188 218.605469 260.660156 C 217.183594 260.726562 216.765625 261.378906 216.871094 262.675781 C 217.226562 267.050781 217.546875 271.429688 217.882812 275.8125 C 217.988281 277.183594 219.003906 277.109375 219.941406 277.050781 C 224.855469 276.730469 229.765625 276.351562 234.679688 276.074219 C 236.109375 275.996094 236.46875 275.28125 236.445312 274.023438 C 236.390625 272.015625 236.421875 270.011719 236.421875 268.011719 Z M 193.460938 208.84375 C 190.933594 208.84375 188.414062 208.886719 185.890625 208.824219 C 184.46875 208.792969 183.96875 209.375 184.214844 210.75 C 185.007812 215.035156 185.835938 219.316406 186.550781 223.617188 C 186.800781 225.125 187.597656 225.585938 188.996094 225.574219 C 193.515625 225.539062 198.027344 225.53125 202.542969 225.574219 C 203.996094 225.585938 204.371094 224.882812 204.265625 223.605469 C 203.921875 219.382812 203.582031 215.15625 203.285156 210.929688 C 203.183594 209.457031 202.527344 208.796875 201.027344 208.828125 C 198.507812 208.882812 195.980469 208.84375 193.460938 208.84375 Z M 264.417969 266.21875 C 264.417969 263.734375 264.441406 261.460938 264.417969 259.195312 C 264.417969 258.253906 263.988281 257.871094 262.898438 257.953125 C 259.183594 258.226562 255.453125 258.332031 251.730469 258.566406 C 250.011719 258.675781 248.304688 258.996094 246.582031 259.097656 C 245.34375 259.171875 245.042969 259.800781 245.066406 260.90625 C 245.148438 264.644531 245.167969 268.382812 245.25 272.117188 C 245.269531 272.773438 245.339844 273.507812 245.65625 274.042969 C 245.933594 274.492188 246.605469 275.003906 247.082031 274.980469 C 250.402344 274.828125 253.730469 274.625 257.039062 274.28125 C 259.375 274.035156 261.6875 273.539062 264.011719 273.152344 C 264.144531 270.765625 264.289062 268.382812 264.417969 266.21875 Z M 273.207031 265.328125 L 273.101562 265.328125 C 273.101562 267.0625 273.082031 268.792969 273.101562 270.523438 C 273.132812 272.835938 273.15625 272.941406 275.253906 272.773438 C 280.414062 272.355469 285.566406 271.824219 290.722656 271.347656 C 291.605469 271.269531 292.203125 270.980469 292.28125 269.949219 C 292.554688 266.242188 292.9375 262.53125 293.140625 258.828125 C 293.277344 256.460938 292.957031 256.261719 290.730469 256.472656 C 289.410156 256.597656 288.085938 256.703125 286.757812 256.746094 C 283.960938 256.855469 281.152344 256.792969 278.371094 257.039062 C 273.28125 257.492188 273.289062 257.5625 273.207031 262.53125 C 273.195312 263.457031 273.210938 264.386719 273.210938 265.320312 Z M 315.652344 208.84375 C 313.519531 208.84375 311.386719 208.816406 309.253906 208.84375 C 306.898438 208.878906 306.722656 208.882812 306.4375 211.125 C 305.902344 215.339844 305.613281 219.582031 305.195312 223.8125 C 305.085938 224.957031 305.515625 225.558594 306.742188 225.550781 C 311.007812 225.535156 315.273438 225.519531 319.542969 225.566406 C 321.007812 225.585938 321.695312 224.988281 321.9375 223.535156 C 322.648438 219.214844 323.449219 214.910156 324.238281 210.605469 C 324.449219 209.445312 324.125 208.820312 322.867188 208.832031 C 320.453125 208.859375 318.042969 208.84375 315.652344 208.84375 Z M 208.917969 275.601562 C 208.628906 271.753906 208.347656 267.910156 208.03125 264.0625 C 207.988281 263.542969 207.703125 263.039062 207.644531 262.515625 C 207.519531 261.339844 206.914062 260.957031 205.757812 261.050781 C 202.441406 261.308594 199.117188 261.488281 195.800781 261.707031 C 193.730469 261.847656 193.46875 262.09375 193.808594 264.125 C 194.5625 268.578125 195.40625 273.015625 196.195312 277.464844 C 196.386719 278.5625 196.941406 279.144531 198.082031 279.054688 C 200.867188 278.839844 203.65625 278.609375 206.441406 278.398438 C 209.046875 278.199219 209.046875 278.207031 208.917969 275.613281 Z M 312.382812 233.613281 C 310.25 233.613281 308.113281 233.636719 305.984375 233.613281 C 304.808594 233.59375 304.359375 234.136719 304.273438 235.277344 C 303.996094 238.847656 303.640625 242.421875 303.328125 246.007812 C 303.191406 247.558594 303.523438 247.929688 304.976562 247.820312 C 307.097656 247.660156 309.210938 247.433594 311.332031 247.292969 C 312.929688 247.191406 314.550781 247.292969 316.125 247.070312 C 316.761719 246.976562 317.703125 246.3125 317.820312 245.761719 C 318.535156 242.386719 319.050781 238.96875 319.640625 235.566406 C 319.867188 234.25 319.429688 233.558594 317.992188 233.597656 C 316.121094 233.652344 314.253906 233.613281 312.382812 233.613281 Z M 303.820312 270.453125 C 306.6875 270.179688 309.332031 269.902344 311.980469 269.691406 C 313.054688 269.597656 313.726562 269.140625 313.902344 268.042969 C 314.570312 264.117188 315.253906 260.191406 315.859375 256.257812 C 315.910156 255.949219 315.402344 255.242188 315.175781 255.253906 C 311.191406 255.4375 307.210938 255.667969 303.234375 255.953125 C 302.230469 256.027344 302.117188 256.890625 302.050781 257.734375 C 301.800781 260.914062 301.5 264.089844 301.246094 267.273438 C 301.1875 267.933594 301.039062 268.644531 301.246094 269.25 C 301.402344 269.730469 301.964844 270.191406 302.460938 270.40625 C 302.910156 270.617188 303.511719 270.453125 303.820312 270.453125 Z M 303.820312 270.453125 " fill-opacity="1" fill-rule="nonzero"/><g clip-path="url(#59bd16b2a0)"><path fill="#cb4a02" d="M 257.378906 313.816406 C 236.949219 313.816406 216.515625 313.773438 196.085938 313.855469 C 191.964844 313.871094 188.5625 312.671875 185.71875 309.679688 C 181.71875 305.480469 181.421875 298.816406 184.265625 293.675781 C 185.300781 291.8125 186.464844 290.011719 187.375 288.089844 C 187.824219 287.140625 187.980469 286.140625 187.839844 285.097656 C 185.125 269.792969 182.296875 254.503906 179.578125 239.199219 C 177.058594 225.066406 174.636719 210.921875 172.148438 196.78125 C 171.324219 192.066406 170.460938 187.363281 169.695312 182.640625 C 169.402344 180.84375 168.597656 179.890625 166.699219 179.582031 C 161.449219 178.722656 156.226562 177.679688 151.007812 176.714844 C 149.4375 176.425781 147.855469 176.21875 146.300781 175.875 C 143.828125 175.324219 142.28125 173.269531 142.535156 170.988281 C 142.808594 168.601562 145.007812 166.8125 147.703125 167.140625 C 151 167.554688 154.261719 168.21875 157.53125 168.8125 C 163.285156 169.851562 169.027344 170.957031 174.792969 171.949219 C 176.183594 172.1875 176.855469 172.742188 177.089844 174.183594 C 177.730469 178.113281 178.542969 182.019531 179.253906 185.9375 C 181.367188 197.574219 183.507812 209.207031 185.558594 220.855469 C 188.117188 235.386719 190.570312 249.9375 193.113281 264.46875 C 194.347656 271.535156 195.683594 278.582031 196.996094 285.625 C 197.339844 287.484375 197.296875 289.140625 196.144531 290.84375 C 194.589844 293.160156 193.558594 295.820312 192.023438 298.15625 C 190.191406 300.941406 191.847656 305.347656 196.089844 304.96875 C 197.015625 304.886719 197.960938 304.96875 198.894531 304.96875 L 318.28125 304.96875 C 319.347656 304.96875 320.429688 304.882812 321.476562 305.035156 C 321.761719 305.074219 322.035156 305.140625 322.308594 305.230469 C 322.578125 305.324219 322.835938 305.441406 323.082031 305.585938 C 323.328125 305.726562 323.558594 305.894531 323.773438 306.082031 C 323.992188 306.269531 324.1875 306.472656 324.359375 306.699219 C 324.535156 306.925781 324.6875 307.164062 324.816406 307.417969 C 324.945312 307.671875 325.050781 307.9375 325.128906 308.210938 C 325.207031 308.488281 325.257812 308.765625 325.28125 309.050781 C 325.304688 309.335938 325.300781 309.617188 325.269531 309.902344 C 325.050781 312.3125 323.632812 313.652344 321.078125 313.796875 C 320.015625 313.859375 318.941406 313.820312 317.875 313.820312 Z M 257.378906 313.816406 " fill-opacity="1" fill-rule="nonzero"/></g><g clip-path="url(#41b75589d3)"><path fill="#cb4a02" d="M 292.339844 332.386719 C 291.789062 325.519531 298.382812 317.476562 306.882812 317.609375 C 314.972656 317.738281 321.679688 323.414062 321.796875 332.035156 C 321.910156 340.167969 316.300781 347.058594 307.050781 347.058594 C 297.4375 347.054688 292.011719 339.050781 292.339844 332.386719 Z M 307.175781 325.636719 C 303.183594 325.636719 300.261719 328.507812 300.328125 332.382812 C 300.390625 336.101562 303.546875 339.132812 307.359375 339.140625 C 310.476562 339.140625 313.921875 335.492188 313.894531 332.210938 C 313.855469 328.707031 310.730469 325.648438 307.164062 325.636719 Z M 307.175781 325.636719 " fill-opacity="1" fill-rule="nonzero"/></g><g clip-path="url(#036e281332)"><path fill="#cb4a02" d="M 224.386719 332.429688 C 224.351562 340.480469 217.8125 347.222656 210.082031 347.1875 C 201.644531 347.144531 195.40625 340.625 195.164062 332.164062 C 194.945312 324.304688 202.035156 317.480469 209.910156 317.539062 C 217.46875 317.609375 225.085938 324.546875 224.386719 332.429688 Z M 216.394531 332.796875 C 216.5625 328.949219 214.03125 325.878906 210.507812 325.652344 C 206.480469 325.40625 203.46875 328.019531 203.21875 331.808594 C 202.964844 335.703125 205.570312 338.796875 209.539062 339.003906 C 209.96875 339.035156 210.398438 339.019531 210.828125 338.964844 C 211.253906 338.90625 211.671875 338.804688 212.082031 338.664062 C 212.488281 338.523438 212.878906 338.34375 213.25 338.121094 C 213.621094 337.902344 213.96875 337.648438 214.289062 337.359375 C 214.609375 337.066406 214.894531 336.75 215.152344 336.402344 C 215.40625 336.054688 215.625 335.683594 215.804688 335.292969 C 215.988281 334.898438 216.125 334.492188 216.226562 334.074219 C 216.324219 333.652344 216.378906 333.226562 216.394531 332.796875 Z M 216.394531 332.796875 " fill-opacity="1" fill-rule="nonzero"/></g></svg>